<svg width="250" height="250" viewBox="0 0 250 250" fill="none" xmlns="http://www.w3.org/2000/svg">
<path d="M76.3341 74.6602C103.581 47.2336 147.902 47.0876 175.328 74.3341C202.755 101.581 202.901 145.902 175.655 173.328C148.408 200.755 104.087 200.901 76.6603 173.655C49.2336 146.408 49.0876 102.087 76.3341 74.6602Z" fill="#00A6FB"/>
<path fill-rule="evenodd" clip-rule="evenodd" d="M82.5233 51.597L41.6034 40.7769L52.6929 81.6246C56.2313 75.6028 60.5748 69.9225 65.7241 64.7392C70.8734 59.5558 76.525 55.1749 82.5233 51.597Z" fill="#00A6FB"/>
<path fill-rule="evenodd" clip-rule="evenodd" d="M52.503 167.906L41.683 208.825L82.5306 197.736C76.5089 194.198 70.8286 189.854 65.6453 184.705C60.4619 179.555 56.081 173.904 52.503 167.906Z" fill="#00A6FB"/>
<path fill-rule="evenodd" clip-rule="evenodd" d="M198.356 81.1445L209.176 40.2247L168.329 51.3142C174.35 54.8525 180.031 59.1961 185.214 64.3454C190.397 69.4947 194.778 75.1463 198.356 81.1445Z" fill="#00A6FB"/>
<path fill-rule="evenodd" clip-rule="evenodd" d="M146.326 43.6556L125.163 7L104 43.6556C110.766 41.9218 117.857 41 125.163 41C132.469 41 139.56 41.9218 146.326 43.6556Z" fill="#00A6FB"/>
<path fill-rule="evenodd" clip-rule="evenodd" d="M207 145.326L243.656 124.163L207 103C208.734 109.766 209.656 116.857 209.656 124.163C209.656 131.469 208.734 138.56 207 145.326Z" fill="#00A6FB"/>
<path fill-rule="evenodd" clip-rule="evenodd" d="M43.6556 104L7 125.163L43.6556 146.326C41.9218 139.56 41 132.469 41 125.163C41 117.857 41.9218 110.766 43.6556 104Z" fill="#00A6FB"/>
<path fill-rule="evenodd" clip-rule="evenodd" d="M105 206L126.163 242.656L147.326 206C140.56 207.734 133.469 208.656 126.163 208.656C118.857 208.656 111.766 207.734 105 206Z" fill="#00A6FB"/>
<path fill-rule="evenodd" clip-rule="evenodd" d="M169.284 197.45L210.204 208.27L199.114 167.422C195.576 173.444 191.233 179.124 186.083 184.308C180.934 189.491 175.282 193.872 169.284 197.45Z" fill="#00A6FB"/>
</svg>
