<svg width="250" height="250" viewBox="0 0 250 250" fill="none" xmlns="http://www.w3.org/2000/svg">
<path d="M213.742 236.37L125 147.628L36.2582 236.37C30.0096 242.617 19.8791 242.617 13.6304 236.37C7.38263 230.121 7.38263 219.99 13.6304 213.742L102.372 125L13.6304 36.2582C7.38263 30.0095 7.38263 19.879 13.6304 13.6304C19.8791 7.38257 30.0096 7.38257 36.2582 13.6304L125 102.372L213.742 13.6304C219.991 7.38257 230.121 7.38257 236.37 13.6304C242.617 19.879 242.617 30.0095 236.37 36.2582L147.628 125L236.37 213.742C242.617 219.99 242.617 230.121 236.37 236.37C233.245 239.493 229.151 241.055 225.056 241.055C220.961 241.055 216.866 239.493 213.742 236.37Z" fill="#000"/>
</svg>
