<?xml version="1.0" standalone="no"?>
<!DOCTYPE svg PUBLIC "-//W3C//DTD SVG 20010904//EN"
 "http://www.w3.org/TR/2001/REC-SVG-20010904/DTD/svg10.dtd">
<svg version="1.0" xmlns="http://www.w3.org/2000/svg"
 width="746.000000pt" height="629.000000pt" viewBox="0 0 746.000000 629.000000"
 preserveAspectRatio="xMidYMid meet">
<metadata>
Created by potrace 1.16, written by Peter Selinger 2001-2019
</metadata>
<g transform="translate(0.000000,629.000000) scale(0.100000,-0.100000)"
fill="#000000" stroke="none">
<path d="M3972 5568 c-9 -9 -12 -525 -12 -2260 l0 -2248 -1380 0 -1380 0 0
2233 c0 1723 -3 2236 -12 2245 -8 8 -47 12 -108 12 -61 0 -100 -4 -108 -12
-17 -17 -17 -4689 0 -4706 17 -17 3199 -17 3216 0 17 17 17 4719 0 4736 -8 8
-47 12 -108 12 -61 0 -100 -4 -108 -12z"/>
<path d="M6077 5564 c-4 -4 -7 -461 -7 -1016 l0 -1008 -745 0 -745 0 -2 848
-3 847 -105 0 -105 0 0 -955 0 -955 960 0 960 0 0 1120 0 1120 -101 3 c-55 1
-103 0 -107 -4z"/>
<path d="M4404 5516 c-26 -26 -34 -42 -34 -71 0 -50 53 -105 100 -105 47 0
100 55 100 105 0 50 -53 105 -100 105 -23 0 -41 -9 -66 -34z"/>
<path d="M1667 5292 c-3 -4 -8 -755 -12 -1667 -3 -913 -8 -1796 -11 -1963 l-6
-303 -27 3 -26 3 -3 270 c-1 149 -6 961 -10 1805 l-7 1535 -110 0 -110 0 4
-1900 c2 -1045 7 -1904 12 -1909 5 -6 500 -10 1221 -10 l1213 -1 3 90 c2 76 0
92 -14 102 -14 10 -220 13 -987 13 l-969 0 6 113 c3 61 7 947 8 1967 l3 1855
-87 3 c-47 1 -89 -1 -91 -6z"/>
<path d="M1401 5266 c-87 -48 -50 -186 49 -186 51 0 100 49 100 99 0 75 -83
124 -149 87z"/>
<path d="M6504 5056 c-26 -26 -34 -42 -34 -71 0 -50 53 -105 100 -105 47 0
100 55 100 105 0 50 -53 105 -100 105 -23 0 -41 -9 -66 -34z"/>
<path d="M6465 4768 c-3 -7 -4 -895 -3 -1973 l3 -1960 105 0 105 0 0 1970 0
1970 -103 3 c-76 2 -104 -1 -107 -10z"/>
<path d="M4375 2988 c-3 -7 -4 -422 -3 -923 l3 -910 105 0 105 0 3 813 2 812
735 0 735 0 2 -967 3 -968 105 0 105 0 0 1075 0 1075 -948 3 c-753 2 -949 0
-952 -10z"/>
<path d="M4431 1026 c-87 -48 -50 -186 49 -186 51 0 100 49 100 99 0 75 -83
124 -149 87z"/>
</g>
</svg>